<svg width="36" height="36" viewBox="0 0 36 36" fill="none" xmlns="http://www.w3.org/2000/svg">
    <path d="M7.998 31.3337L22.7797 16.552C23.4398 15.8919 23.7698 15.5619 24.1503 15.4383C24.4851 15.3295 24.8457 15.3295 25.1804 15.4383C25.5609 15.5619 25.891 15.8919 26.551 16.552L33.6741 23.6751M15.4987 12.1663C15.4987 14.0073 14.0063 15.4997 12.1654 15.4997C10.3244 15.4997 8.83203 14.0073 8.83203 12.1663C8.83203 10.3254 10.3244 8.83301 12.1654 8.83301C14.0063 8.83301 15.4987 10.3254 15.4987 12.1663ZM34.6654 17.9997C34.6654 27.2044 27.2034 34.6663 17.9987 34.6663C8.79395 34.6663 1.33203 27.2044 1.33203 17.9997C1.33203 8.79493 8.79395 1.33301 17.9987 1.33301C27.2034 1.33301 34.6654 8.79493 34.6654 17.9997Z" stroke="black" stroke-width="2" stroke-linecap="round" stroke-linejoin="round"/>
</svg>