<svg width="23" height="23" viewBox="0 0 23 23" fill="none" xmlns="http://www.w3.org/2000/svg">
<path id="Icon" d="M21.0402 23L13.125 15.0839C9.60393 17.587 4.75199 16.9748 1.96322 13.6753C-0.82554 10.3759 -0.620769 5.49007 2.4343 2.43554C5.48856 -0.620332 10.3752 -0.825976 13.6754 1.96247C16.9756 4.75092 17.5883 9.60304 15.0848 13.1242L23 21.0404L21.0416 22.9986L21.0402 23ZM8.30942 2.77066C5.68307 2.77007 3.41721 4.61354 2.88369 7.18498C2.35017 9.75642 3.69562 12.3491 6.10546 13.3932C8.51529 14.4374 11.3272 13.6461 12.8387 11.4984C14.3502 9.35075 14.1459 6.43697 12.3494 4.5212L13.1874 5.35215L12.2428 4.41041L12.2262 4.39379C11.1899 3.3512 9.77944 2.7667 8.30942 2.77066Z" fill="white"/>
</svg>
